<?xml version="1.0" encoding="UTF-8"?>
<svg width="22px" height="22px" viewBox="0 0 22 22" version="1.1" xmlns="http://www.w3.org/2000/svg" xmlns:xlink="http://www.w3.org/1999/xlink">
    <title>ant_icon_20px</title>
    <g id="页面-1" stroke="none" stroke-width="1" fill="none" fill-rule="evenodd">
        <g id="13-个人中心" transform="translate(-33.000000, -486.000000)">
            <g id="编组-28" transform="translate(25.000000, 445.000000)">
                <g id="ant_icon_20px" transform="translate(9.000000, 42.000000)">
                    <rect id="矩形" stroke="#FFFFFF" opacity="0.119999997" x="0" y="0" width="20" height="20" rx="10"></rect>
                    <path d="M7.44197376,12.8600559 C7.44197376,12.548227 7.50585538,12.294866 7.63253588,12.0934765 C7.4679595,12.1367861 7.29905216,12.1779302 7.13014483,12.220157 C6.77608907,12.3208517 6.66456692,12.4800144 6.71762114,12.8124154 L7.0933317,15.260489 C7.13014483,15.5030226 6.97639585,15.6513579 6.77608907,15.6513579 C6.5595412,15.6513579 6.46426014,15.5246774 6.43177796,15.3081296 L6.02033701,12.6911486 C5.92505595,12.1043039 6.16109312,11.7816476 6.80207481,11.6333123 L8.96971895,11.1255075 L8.96971895,11.073536 C8.7315163,10.9620139 8.58426374,10.7183975 8.53120952,10.4650365 L7.0933317,10.2593161 C6.45884645,10.1748624 6.18383066,9.84787512 6.18383066,9.23829287 L6.18383066,7.53081296 C6.18383066,7.31426509 6.30509746,7.19299829 6.51731436,7.19299829 C6.72844853,7.19299829 6.84971533,7.31967879 6.84971535,7.53081296 L6.84971535,9.10619868 C6.84971535,9.47108183 7.03378104,9.60425877 7.38350583,9.65081656 L8.52038213,9.80997924 C8.57258143,9.64573218 8.67668918,9.50286899 8.8170527,9.40286926 L8.8170527,9.34981503 C7.96493685,9.19714879 7.49502798,8.68393035 7.49502798,7.92168185 C7.49502798,7.24496977 7.77004377,6.62672561 8.2031395,6.17197509 L8.14900254,6.13516196 C7.67476272,5.7811062 7.6054674,5.29495623 7.92812372,4.76116575 L8.29300687,4.21113417 C8.3763778,4.06279888 8.47274159,4 8.60375306,4 C8.78348779,4 8.91558199,4.12776324 8.91558199,4.29667057 C8.91833722,4.37371055 8.89632771,4.44960542 8.8527831,4.51321844 L8.50847199,4.99395471 C8.32873727,5.26463953 8.32873727,5.49634576 8.55611253,5.69232157 C8.58859471,5.71830732 8.61999415,5.74645854 8.65139358,5.76594784 C9.06283453,5.49093205 9.55006723,5.32743841 10.0741131,5.32743841 C10.6024899,5.32743841 11.0940535,5.49093205 11.5065772,5.77136154 C11.5433903,5.7453758 11.5747898,5.71830732 11.607272,5.69232157 C11.8346472,5.49742849 11.8292335,5.2635568 11.6549125,4.99395471 L11.3106014,4.51321844 C11.2670568,4.44960542 11.2450473,4.37371055 11.2478025,4.29667057 C11.2478025,4.12776324 11.3798967,4 11.5596314,4 C11.6917256,4 11.7870067,4.06496436 11.8714604,4.2122169 L12.2363435,4.76224848 C12.5589998,5.29603897 12.4897045,5.78218893 12.014382,6.13732744 L11.955914,6.17847153 C12.3835961,6.63322204 12.6531982,7.2514662 12.6531982,7.92276459 C12.6531982,8.68501308 12.1832893,9.19714878 11.3322562,9.3519805 L11.3322562,9.40395199 C11.4738386,9.50247708 11.577996,9.64593188 11.627844,9.81106199 L12.7647203,9.65189931 C13.1187761,9.60425877 13.2985108,9.47216458 13.2985108,9.10728142 L13.2985108,7.53081296 C13.2985108,7.31967879 13.4197776,7.19299829 13.6319945,7.19299829 C13.8431287,7.19299829 13.9643955,7.31426509 13.9643955,7.53081296 L13.9643955,9.23829287 C13.9643955,9.84679237 13.6893797,10.1748624 13.0548944,10.2593161 L11.6170166,10.4650365 C11.5650451,10.7183975 11.4167098,10.9630966 11.1785072,11.073536 L11.1785072,11.1255075 L13.3461513,11.634395 C13.9849675,11.7816476 14.2231702,12.1043039 14.1289719,12.6911486 L13.7218619,15.3081296 C13.6850487,15.5246774 13.5897677,15.6513579 13.3732198,15.6513579 C13.1718303,15.6513579 13.0180813,15.5030226 13.0559772,15.2615718 L13.430605,12.8124154 C13.4836592,12.4789317 13.3732198,12.3208518 13.0180813,12.220157 C12.8504886,12.1784437 12.6830241,12.1362166 12.5156903,12.0934765 C12.6434535,12.294866 12.7062524,12.548227 12.7062524,12.8600559 C12.7062524,14.4949923 11.4697641,16 10.0741131,16 C8.67737933,16 7.44089101,14.4949923 7.44089102,12.8600559" id="路径" fill="#FFFFFF" fill-rule="nonzero"></path>
                </g>
            </g>
        </g>
    </g>
</svg>